<?xml version="1.0" encoding="UTF-8"?>
<svg width="14px" height="14px" viewBox="0 0 14 14" version="1.1" xmlns="http://www.w3.org/2000/svg" xmlns:xlink="http://www.w3.org/1999/xlink">
    <!-- Generator: Sketch 52.4 (67378) - http://www.bohemiancoding.com/sketch -->
    <title>icon_rqjx</title>
    <desc>Created with Sketch.</desc>
    <g id="蓝盾服务扩展商店" stroke="none" stroke-width="1" fill="none" fill-rule="evenodd">
        <g id="研发商店" transform="translate(-106.000000, -288.000000)" fill="currentcolor">
            <g id="Group-4" transform="translate(69.000000, 88.000000)">
                <g id="Group-2" transform="translate(19.000000, 187.000000)">
                    <g id="编组-7">
                        <g id="Group-27" transform="translate(16.000000, 11.000000)">
                            <g id="Group-26">
                                <g id="Group-28" transform="translate(9.000000, 9.000000) rotate(-180.000000) translate(-9.000000, -9.000000) translate(2.000000, 2.000000)">
                                    <path d="M6.5,0 L7.5,0 L7.5,14 L6.5,14 L6.5,0 Z M10,12.7135663 L13,11.9499299 L13,2.05007008 L10,1.28643372 L10,12.7135663 Z M9,0 L13.2466793,1.08097291 C13.6898232,1.19377318 14,1.59279506 14,2.05007008 L14,11.9499299 C14,12.4072049 13.6898232,12.8062268 13.2466793,12.9190271 L9,14 L9,0 Z M4,1.28643372 L1,2.05007008 L1,11.9499299 L4,12.7135663 L4,1.28643372 Z M0.753320719,1.08097291 L5,0 L5,14 L0.753320719,12.9190271 C0.310176792,12.8062268 -3.88089171e-16,12.4072049 -4.4408921e-16,11.9499299 L0,2.05007008 C-5.60000387e-17,1.59279506 0.310176792,1.19377318 0.753320719,1.08097291 Z" id="icon_rqjx"></path>
                                </g>
                            </g>
                        </g>
                    </g>
                </g>
            </g>
        </g>
    </g>
</svg>