<?xml version="1.0" encoding="UTF-8"?>
<svg width="14px" height="13px" viewBox="0 0 14 13" version="1.1" xmlns="http://www.w3.org/2000/svg" xmlns:xlink="http://www.w3.org/1999/xlink">
    <!-- Generator: Sketch 52.4 (67378) - http://www.bohemiancoding.com/sketch -->
    <title>icon_fwkz</title>
    <desc>Created with Sketch.</desc>
    <g id="蓝盾服务扩展商店" stroke="none" stroke-width="1">
        <g id="研发商店" transform="translate(-69.000000, -303.000000)">
            <g id="Group-4" transform="translate(69.000000, 88.000000)">
                <g id="Group-3" transform="translate(0.000000, 215.000000)">
                    <g id="编组-7">
                        <g id="Group-30">
                            <path d="M1,8 L1,12 L13,12 L13,8 L1,8 Z M1,7 L13,7 C13.5522847,7 14,7.44771525 14,8 L14,12 C14,12.5522847 13.5522847,13 13,13 L1,13 C0.44771525,13 0,12.5522847 0,12 L0,8 C0,7.44771525 0.44771525,7 1,7 Z M3,2 C3.55228475,2 4,2.44771525 4,3 C4,3.55228475 3.55228475,4 3,4 C2.44771525,4 2,3.55228475 2,3 C2,2.44771525 2.44771525,2 3,2 Z M3,9 C3.55228475,9 4,9.44771525 4,10 C4,10.5522847 3.55228475,11 3,11 C2.44771525,11 2,10.5522847 2,10 C2,9.44771525 2.44771525,9 3,9 Z M1,1 L1,5 L13,5 L13,1 L1,1 Z M1,0 L13,0 C13.5522847,0 14,0.44771525 14,1 L14,5 C14,5.55228475 13.5522847,6 13,6 L1,6 C0.44771525,6 0,5.55228475 0,5 L0,1 C0,0.44771525 0.44771525,0 1,0 Z" id="icon_fwkz"></path>
                        </g>
                    </g>
                </g>
            </g>
        </g>
    </g>
</svg>